<svg xmlns="http://www.w3.org/2000/svg" viewBox="0 0 107 107"><defs><style>.cls-1{fill:#ffb81c;stroke:#ffb81c;stroke-miterlimit:10;stroke-width:2px;}</style></defs><title>ico-dsc</title><g id="Layer_2" data-name="Layer 2"><g id="cards_1" data-name="cards 1"><g id="DSC"><path class="cls-1" d="M38.3,1a12.37,12.37,0,0,0-6.91,22.67v7.72h-29A1.38,1.38,0,0,0,1,32.78V63.17a1.38,1.38,0,0,0,1.38,1.38h7a1.37,1.37,0,0,0,1.21-.69,9.68,9.68,0,1,1,0,9.67,1.39,1.39,0,0,0-1.21-.69h-7A1.38,1.38,0,0,0,1,74.22v30.4A1.38,1.38,0,0,0,2.38,106H74.22a1.38,1.38,0,0,0,1.39-1.38v-29h7.72a12.44,12.44,0,1,0,0-13.82H75.61v-29a1.39,1.39,0,0,0-1.39-1.39h-29V23.67A12.37,12.37,0,0,0,38.3,1Zm0,2.76a9.65,9.65,0,0,1,4.84,18A1.37,1.37,0,0,0,42.45,23v9.8a1.38,1.38,0,0,0,1.38,1.38h29v29a1.38,1.38,0,0,0,1.38,1.38H84a1.37,1.37,0,0,0,1.21-.69,9.68,9.68,0,1,1,0,9.67A1.39,1.39,0,0,0,84,72.84h-9.8a1.38,1.38,0,0,0-1.38,1.38v29H3.76V75.61h5a12.44,12.44,0,1,0,0-13.82h-5V34.16h29a1.38,1.38,0,0,0,1.38-1.38V23a1.39,1.39,0,0,0-.69-1.21,9.65,9.65,0,0,1,4.83-18Z"/></g></g></g></svg>