<svg xmlns="http://www.w3.org/2000/svg" viewBox="0 0 79.3 97.7"><defs><style>.cls-1{fill:#ffb81c;stroke:#ffb81c;stroke-miterlimit:10;stroke-width:2px;}</style></defs><title>ico-dso</title><g id="Layer_2" data-name="Layer 2"><g id="cards_1" data-name="cards 1"><g id="DSO"><path class="cls-1" d="M39.44,96.7l-.3-.15A100,100,0,0,1,19.21,82.72C7.13,71.86,1,60.44,1,48.79V16.4a1.46,1.46,0,0,1,1-1.26l.16,0,37.33-14L39.61,1a1.13,1.13,0,0,1,.27,0,1,1,0,0,1,.3,0l.14.07,37.26,14a2,2,0,0,1,.72,1.32V48.79c0,11.65-6.12,23.07-18.21,33.93A99.63,99.63,0,0,1,40.16,96.55l-.29.15ZM4.26,17.55V48.79c0,22.94,26,39.33,33.92,43.81l1.55.87,1.51-.94c22.43-14,33.81-28.74,33.81-43.74V17.55L39.65,4.4Z"/></g></g></g></svg>