<svg xmlns="http://www.w3.org/2000/svg" viewBox="0 0 91 91"><defs><style>.cls-1{fill:#ffb81c;stroke:#ffb81c;stroke-miterlimit:10;stroke-width:2px;}</style></defs><title>ico-bir</title><g id="Layer_2" data-name="Layer 2"><g id="cards_1" data-name="cards 1"><g id="BIR"><polygon class="cls-1" points="90 90 1 90 1 1 4.87 1 4.87 86.13 90 86.13 90 90"/><rect class="cls-1" x="2.93" y="20.73" width="7.74" height="3.87"/><rect class="cls-1" x="2.93" y="42.6" width="7.74" height="3.87"/><rect class="cls-1" x="2.93" y="64.27" width="7.74" height="3.87"/><polygon class="cls-1" points="18.22 65.62 16.67 62.14 24.8 58.46 30.02 35.83 41.63 49.18 49.37 42.98 53.43 48.21 63.88 27.12 84.39 19.38 85.74 22.86 66.59 30.21 54.21 55.56 48.6 48.4 41.05 54.59 32.15 44.15 28.28 61.37 18.22 65.62"/></g></g></g></svg>