<svg xmlns="http://www.w3.org/2000/svg" viewBox="0 0 109.58 93"><defs><style>.cls-1{fill:#ffb81c;}</style></defs><title>ico-ops</title><g id="Layer_2" data-name="Layer 2"><g id="cards_1" data-name="cards 1"><g id="Ops"><path class="cls-1" d="M16.93,40.94a2.48,2.48,0,0,1-2.73-2.73V5.08a2.49,2.49,0,0,1,2.73-2.73,2.49,2.49,0,0,1,2.73,2.73V38.21A2.48,2.48,0,0,1,16.93,40.94Z"/><path class="cls-1" d="M54.79,93a2.49,2.49,0,0,1-2.73-2.73V47.68a2.73,2.73,0,1,1,5.46,0V90.27A2.49,2.49,0,0,1,54.79,93Z"/><path class="cls-1" d="M92.65,50.41a2.49,2.49,0,0,1-2.73-2.73V5.08a2.73,2.73,0,1,1,5.46,0v42.6A2.49,2.49,0,0,1,92.65,50.41Z"/><path class="cls-1" d="M16.93,90.65a2.49,2.49,0,0,1-2.73-2.73V57.52H2.73a2.73,2.73,0,0,1,0-5.46h28.4a2.73,2.73,0,0,1,0,5.46H19.66v30.4A2.49,2.49,0,0,1,16.93,90.65Z"/><path class="cls-1" d="M40.59,29.13a2.49,2.49,0,0,1-2.73-2.74,2.49,2.49,0,0,1,2.73-2.73H52.06V2.73a2.73,2.73,0,0,1,5.46,0V23.66H69a2.49,2.49,0,0,1,2.73,2.73A2.49,2.49,0,0,1,69,29.13Z"/><path class="cls-1" d="M92.65,90.65a2.49,2.49,0,0,1-2.73-2.73V67H78.45a2.74,2.74,0,0,1,0-5.47h28.39a2.74,2.74,0,1,1,0,5.47H95.38V87.92A2.49,2.49,0,0,1,92.65,90.65Z"/></g></g></g></svg>