<svg xmlns="http://www.w3.org/2000/svg" viewBox="0 0 95.06 94.87"><defs><style>.cls-1{fill:#ffb81c;}</style></defs><title>ico-feedback</title><g id="Layer_2" data-name="Layer 2"><g id="Feedback"><path class="cls-1" d="M3.14,94.86a4.33,4.33,0,0,1-2.64-1A3.68,3.68,0,0,1,.12,91L9.23,64.17l-.29-.7A49.94,49.94,0,0,1,5.14,45,44.33,44.33,0,0,1,30.21,4.74,40.89,40.89,0,0,1,50.1,0h2.47A44.59,44.59,0,0,1,95.06,42.06v2.41a42.89,42.89,0,0,1-4.71,20.3A44.61,44.61,0,0,1,50.1,89.43a47.81,47.81,0,0,1-18.51-3.81l-.7-.29L3.54,94.62l-.24.25H3.14Zm47-89a40,40,0,0,0-17.21,4.16C19.2,16.9,11,30,11,45a39.84,39.84,0,0,0,4.16,17.21l.06.11.07.1a2,2,0,0,1,.26,2.21L7.83,87.22l22.33-7.64a8.15,8.15,0,0,1,2.73.29A38.77,38.77,0,0,0,85,62.66,41.64,41.64,0,0,0,89.17,45V42.33a39.5,39.5,0,0,0-37-36.44Z"/></g></g></svg>