<svg xmlns="http://www.w3.org/2000/svg" viewBox="0 0 119.2 119.61"><defs><style>.cls-1{fill:#ffb81c;stroke:#ffb81c;stroke-miterlimit:10;stroke-width:3px;}</style></defs><title>icon-id</title><g id="Layer_2" data-name="Layer 2"><g id="Feedback"><path class="cls-1" d="M59.53,118.11c-7.07,0-10.64-3.61-11.92-12.07l-.22-1.5-1.35-.7a4.93,4.93,0,0,1-2.72-4.39v-7.3c0-3.88-.54-5-2.69-7.32l-.11-.12A24.48,24.48,0,0,1,37,79.87c-2.93-5.3-4.7-9-5.65-13.28l0-.11a26.92,26.92,0,0,1-.85-6.81,29.07,29.07,0,0,1,58.14,0,26.92,26.92,0,0,1-.84,6.81l-.05.19C86.86,71,85,74.79,82.11,79.82a25,25,0,0,1-3.56,4.89l-.3.34c-1.85,2.19-2.5,3.29-2.5,7.1v7.3A4.93,4.93,0,0,1,73,103.84l-1.34.7-.23,1.5C70.17,114.5,66.61,118.11,59.53,118.11ZM50.12,108c1.91,7.84,7,7.84,9.41,7.84s7.56,0,9.29-7.9l.8-3.65H49.22Zm-4.55-5.83H73.49V89.69H45.57ZM33.26,65.79l.06.31c.94,4.54,3,8.42,5.48,12.66a28.68,28.68,0,0,0,3.45,4.67l.14.15a14,14,0,0,1,2,2.58l.88,1.41h28.5l.88-1.41a21.81,21.81,0,0,1,2.15-2.73l.08-.09a26.62,26.62,0,0,0,3.38-4.59C82.91,74,84.83,70.37,85.75,66a32.56,32.56,0,0,0,.74-6.29,27,27,0,1,0-53.91,0,24,24,0,0,0,.68,6.08Z"/><path class="cls-1" d="M106.76,60.59a1.06,1.06,0,0,1,0-2.12h9.88a1.08,1.08,0,0,1,1.06,1.06,1,1,0,0,1-1.06,1.06Z"/><path class="cls-1" d="M92.82,27.3A1.15,1.15,0,0,1,92.1,27L92,26.87a.75.75,0,0,1-.25-.56,1.13,1.13,0,0,1,.34-.79l7.13-7.13a.78.78,0,0,1,.58-.24,1.1,1.1,0,0,1,.77.33l.09.1a.75.75,0,0,1,.25.55,1.13,1.13,0,0,1-.34.8l-7,7A.88.88,0,0,1,92.82,27.3Z"/><path class="cls-1" d="M59.53,13.5a1.08,1.08,0,0,1-1.06-1.06V2.56a1.06,1.06,0,0,1,2.12,0v9.88A1,1,0,0,1,59.53,13.5Z"/><path class="cls-1" d="M26.24,27.3a1.15,1.15,0,0,1-.72-.34l-7.13-7.13a.71.71,0,0,1-.24-.55,1.07,1.07,0,0,1,.33-.8l.1-.09a.75.75,0,0,1,.57-.24,1.1,1.1,0,0,1,.78.33l7.13,7.13a.76.76,0,0,1,.24.56A1,1,0,0,1,27,27,1.13,1.13,0,0,1,26.24,27.3Z"/><path class="cls-1" d="M2.56,60.59a1.06,1.06,0,1,1,0-2.12h9.88a1,1,0,0,1,1.06,1.06,1.07,1.07,0,0,1-1.06,1.06Z"/><path class="cls-1" d="M19.21,100.92a1.15,1.15,0,0,1-.73-.34l-.09-.09a.71.71,0,0,1-.24-.56,1,1,0,0,1,.33-.79L25.61,92a.79.79,0,0,1,.58-.25,1.1,1.1,0,0,1,.77.34l.1.09a.78.78,0,0,1,.24.56,1,1,0,0,1-.34.79l-7,7A1.15,1.15,0,0,1,19.21,100.92Z"/><path class="cls-1" d="M99.86,100.92a1.15,1.15,0,0,1-.72-.34L92,93.45a.75.75,0,0,1-.25-.56,1.13,1.13,0,0,1,.34-.79l.09-.09a.79.79,0,0,1,.58-.25,1.1,1.1,0,0,1,.77.34l7.13,7.13a.75.75,0,0,1,.25.56,1.1,1.1,0,0,1-.34.79A1.15,1.15,0,0,1,99.86,100.92Z"/></g></g></svg>